<svg id="bold" enable-background="new 0 0 32 32" height="512" viewBox="0 0 32 32" width="512" xmlns="http://www.w3.org/2000/svg"><path d="m26 32h-20c-3.314 0-6-2.686-6-6v-20c0-3.314 2.686-6 6-6h20c3.314 0 6 2.686 6 6v20c0 3.314-2.686 6-6 6z" fill="#fff9dd"/><path d="m9.833 8c-1.012 0-1.833.821-1.833 1.833v5.833h7.667v-7.666zm3 4.5h-.667v.667c0 .276-.224.5-.5.5s-.5-.224-.5-.5v-.667h-.666c-.276 0-.5-.224-.5-.5s.224-.5.5-.5h.667v-.667c0-.276.224-.5.5-.5s.5.224.5.5v.667h.667c.276 0 .5.224.5.5s-.225.5-.501.5z" fill="#ffd200"/><path d="m8 16.333v5.833c0 1.013.821 1.834 1.833 1.834h5.833v-7.667zm5.02 4.314c.195.195.195.512 0 .707-.098.098-.226.146-.354.146s-.256-.049-.354-.146l-.48-.48-.48.48c-.096.097-.224.146-.352.146s-.256-.049-.354-.146c-.195-.195-.195-.512 0-.707l.48-.48-.48-.48c-.195-.195-.195-.512 0-.707s.512-.195.707 0l.48.48.48-.48c.195-.195.512-.195.707 0s.195.512 0 .707l-.48.48z" fill="#ffe777"/><path d="m22.167 8h-5.833v7.667h7.666v-5.834c0-1.012-.821-1.833-1.833-1.833zm-.334 4.333h-3c-.276 0-.5-.224-.5-.5s.224-.5.5-.5h3c.276 0 .5.224.5.5s-.224.5-.5.5z" fill="#ffe777"/><path d="m16.333 16.333v7.667h5.833c1.013 0 1.834-.821 1.834-1.833v-5.833h-7.667zm5.334 5.334h-3c-.276 0-.5-.224-.5-.5s.224-.5.5-.5h3c.276 0 .5.224.5.5s-.224.5-.5.5zm0-2h-3c-.276 0-.5-.224-.5-.5s.224-.5.5-.5h3c.276 0 .5.224.5.5s-.224.5-.5.5z" fill="#ffd200"/></svg>